<?xml version="1.0" standalone="no"?>
<!DOCTYPE svg PUBLIC "-//W3C//DTD SVG 20010904//EN"
 "http://www.w3.org/TR/2001/REC-SVG-20010904/DTD/svg10.dtd">
<svg version="1.0" xmlns="http://www.w3.org/2000/svg"
 width="1280.000000pt" height="1134.000000pt" viewBox="0 0 1280.000000 1134.000000"
 preserveAspectRatio="xMidYMid meet">
<g transform="translate(0.000000,1134.000000) scale(0.100000,-0.100000)"
fill="#000000" stroke="none">
<path d="M5380 11324 c-38 -17 -75 -48 -93 -79 -9 -15 -13 -360 -17 -1315 l-5
-1295 -2017 -5 -2017 -5 -27 -21 c-15 -11 -37 -33 -48 -48 l-21 -27 0 -2784 0
-2784 21 -27 c11 -15 33 -37 48 -48 l27 -21 2026 -3 c1472 -1 2030 -5 2040
-13 11 -10 13 -235 13 -1311 0 -1419 -3 -1338 59 -1391 45 -37 93 -44 147 -21
28 12 471 381 1231 1024 3416 2891 5192 4397 5230 4433 62 59 75 143 31 206
-7 10 -1471 1255 -3253 2766 -2953 2504 -3292 2787 -3333 2785 -4 -1 -23 -8
-42 -16z"/>
</g>
</svg>
